# xmcd CD database file
#
# Track frame offsets:
#	150
#	17504
#	33007
#	48088
#	64519
#	76506
#	96495
#	114284
#	141059
#	158538
#	180007
#	198794
#	217153
#
# Disc length: 3115 seconds
#
# Revision: 0
# Processed by: cddbd v1.5.2PL0 Copyright (c) Steve Scherf et al.
# Submitted via: CDex 1.75
#
DISCID=8d0c290d
DTITLE=LISA LOVBRAND - LET ME LOVE YOU
DYEAR=1900
DGENRE=Jazz
TTITLE0=LISA LOVBRAND - HOT N' COLD
TTITLE1=LISA LOVBRAND - AIN'T GIVIN' UP
TTITLE2=LISA LOVBRAND - NO MAYBES
TTITLE3=LISA LOVBRAND - I WILL WAIT FOR YOU
TTITLE4=LISA LOVBRAND - TRULY
TTITLE5=LISA LOVBRAND - THE BEST OF ME
TTITLE6=LISA LOVBRAND - NO BREAKING POINT
TTITLE7=LISA LOVBRAND - TEAR OF LOVE
TTITLE8=LISA LOVBRAND - DON'T THINK TWICE
TTITLE9=LISA LOVBRAND - LET'S GET IT ON
TTITLE10=LISA LOVBRAND - WE JUST MET
TTITLE11=LISA LOVBRAND - OVER THE RAINBOW
TTITLE12=LISA LOVBRAND - LADY TIL THE END OF TIME
EXTD=
EXTT0=
EXTT1=
EXTT2=
EXTT3=
EXTT4=
EXTT5=
EXTT6=
EXTT7=
EXTT8=
EXTT9=
EXTT10=
EXTT11=
EXTT12=
PLAYORDER=
